<svg width="16" height="16" viewBox="0 0 16 16" fill="none" xmlns="http://www.w3.org/2000/svg">
<path fill-rule="evenodd" clip-rule="evenodd" d="M7.89653 14.4414C5.43531 14.4414 3.3335 14.0584 3.3335 12.5245C3.3335 10.9907 5.42198 9.57471 7.89653 9.57471C10.3577 9.57471 12.4596 10.9769 12.4596 12.5108C12.4596 14.044 10.3711 14.4414 7.89653 14.4414Z" stroke="#4F5665" stroke-width="1.5" stroke-linecap="round" stroke-linejoin="round"/>
<path fill-rule="evenodd" clip-rule="evenodd" d="M7.89166 7.44919C9.50681 7.44919 10.8159 6.1401 10.8159 4.52495C10.8159 2.90979 9.50681 1.6001 7.89166 1.6001C6.27651 1.6001 4.96681 2.90979 4.96681 4.52495C4.96136 6.13464 6.26136 7.44373 7.87106 7.44919C7.87833 7.44919 7.885 7.44919 7.89166 7.44919Z" stroke="#4F5665" stroke-width="1.5" stroke-linecap="round" stroke-linejoin="round"/>
</svg>
