<svg width="14" height="14" viewBox="0 0 14 14" fill="none" xmlns="http://www.w3.org/2000/svg">
<path d="M3.66146 8.66806C3.57391 8.66804 3.48721 8.68526 3.40631 8.71876C3.32542 8.75225 3.25192 8.80136 3.19001 8.86327C3.1281 8.92518 3.07899 8.99868 3.0455 9.07958C3.012 9.16047 2.99477 9.24717 2.9948 9.33472V10.5229C2.13549 9.55112 1.66126 8.29861 1.66146 7.00139C1.66134 6.80533 1.67308 6.60945 1.69662 6.4148C1.70741 6.32776 1.70092 6.23945 1.67752 6.15492C1.65412 6.07039 1.61427 5.99132 1.56025 5.92222C1.50624 5.85312 1.43911 5.79536 1.36273 5.75225C1.28635 5.70914 1.20222 5.68152 1.11515 5.67099C1.02807 5.66045 0.939779 5.6672 0.855321 5.69085C0.770863 5.7145 0.691902 5.75458 0.622963 5.8088C0.554025 5.86302 0.496463 5.93032 0.453578 6.00682C0.410693 6.08333 0.383327 6.16755 0.373049 6.25465C0.342851 6.50242 0.32785 6.75179 0.328129 7.00139C0.329035 8.59216 0.900766 10.1298 1.93938 11.3347H0.994795C0.817984 11.3347 0.648415 11.405 0.523391 11.53C0.398367 11.655 0.328129 11.8246 0.328129 12.0014C0.328129 12.1782 0.398367 12.3478 0.523391 12.4728C0.648415 12.5978 0.817984 12.6681 0.994795 12.6681H3.66146C3.76573 12.6667 3.86817 12.6405 3.96026 12.5916C4.05235 12.5427 4.13142 12.4725 4.19088 12.3869C4.19866 12.3766 4.20858 12.369 4.21582 12.3582C4.22026 12.3516 4.22038 12.3437 4.22453 12.3369C4.2563 12.2833 4.28011 12.2253 4.2952 12.1647C4.30507 12.1307 4.31207 12.096 4.31615 12.0608C4.31806 12.0402 4.32815 12.0225 4.32815 12.0014V9.33474C4.32817 9.24719 4.31095 9.16048 4.27745 9.07959C4.24396 8.99869 4.19485 8.92518 4.13294 8.86327C4.07102 8.80136 3.99752 8.75225 3.91662 8.71875C3.83572 8.68526 3.74902 8.66803 3.66146 8.66806ZM4.66146 3.00139H3.47315C4.44502 2.14213 5.69755 1.66791 6.9948 1.66806C7.19076 1.66759 7.38656 1.67933 7.58106 1.70322C7.668 1.71378 7.75618 1.70711 7.84055 1.68359C7.92493 1.66007 8.00384 1.62016 8.07279 1.56614C8.14174 1.51213 8.19937 1.44506 8.2424 1.36877C8.28543 1.29248 8.31301 1.20846 8.32357 1.12151C8.33413 1.03456 8.32746 0.946385 8.30394 0.862013C8.28042 0.777642 8.24051 0.698729 8.18649 0.62978C8.13248 0.560831 8.06541 0.503197 7.98912 0.460168C7.91283 0.417139 7.82881 0.389557 7.74186 0.378999C7.49397 0.349093 7.24449 0.334308 6.9948 0.334725C5.40404 0.33559 3.8664 0.907279 2.66146 1.94585V1.00139C2.66146 0.824581 2.59122 0.655012 2.4662 0.529987C2.34118 0.404963 2.17161 0.334725 1.9948 0.334725C1.81798 0.334725 1.64842 0.404963 1.52339 0.529987C1.39837 0.655012 1.32813 0.824581 1.32813 1.00139V3.66806C1.33232 3.71212 1.3411 3.75563 1.35434 3.79787L1.3545 3.79868C1.37068 3.88071 1.40265 3.95883 1.44861 4.02868L1.45622 4.03995C1.50027 4.10401 1.55548 4.15964 1.61922 4.20417C1.62651 4.20951 1.63013 4.21768 1.6377 4.22277C1.64722 4.22907 1.658 4.23107 1.66773 4.23685C1.70554 4.25959 1.7456 4.27836 1.78728 4.29285C1.8436 4.31244 1.90232 4.32429 1.96184 4.32808C1.97339 4.32869 1.98312 4.33475 1.9948 4.33475H4.66146C4.83827 4.33475 5.00784 4.26451 5.13287 4.13948C5.25789 4.01446 5.32813 3.84489 5.32813 3.66808C5.32813 3.49127 5.25789 3.3217 5.13287 3.19667C5.00784 3.07165 4.83827 3.00141 4.66146 3.00141V3.00139ZM12.6351 10.2041C12.6189 10.1221 12.5869 10.0439 12.5409 9.97406L12.5334 9.96286C12.4893 9.89876 12.4341 9.8431 12.3703 9.79856C12.363 9.79327 12.3594 9.78505 12.3519 9.78C12.3447 9.77524 12.3361 9.77509 12.3288 9.77061C12.2443 9.72359 12.1516 9.69296 12.0557 9.68032C12.0346 9.67832 12.0164 9.66802 11.9948 9.66802H9.32813C9.15132 9.66802 8.98175 9.73826 8.85672 9.86329C8.7317 9.98831 8.66146 10.1579 8.66146 10.3347C8.66146 10.5115 8.7317 10.6811 8.85672 10.8061C8.98175 10.9311 9.15132 11.0014 9.32813 11.0014H10.5164C9.54456 11.8606 8.29203 12.3348 6.9948 12.3347C6.79882 12.3349 6.60302 12.323 6.40853 12.2989C6.23293 12.2776 6.05604 12.3269 5.9168 12.436C5.77755 12.545 5.68734 12.705 5.66602 12.8806C5.64469 13.0562 5.694 13.2331 5.80309 13.3723C5.91218 13.5116 6.07212 13.6018 6.24772 13.6231C6.49562 13.653 6.7451 13.668 6.9948 13.668C8.58555 13.6672 10.1232 13.0955 11.3281 12.0569V13.0014C11.3281 13.1782 11.3984 13.3478 11.5234 13.4728C11.6484 13.5978 11.818 13.6681 11.9948 13.6681C12.1716 13.6681 12.3412 13.5978 12.4662 13.4728C12.5912 13.3478 12.6615 13.1782 12.6615 13.0014V10.3347C12.6573 10.2907 12.6485 10.2472 12.6353 10.2049L12.6351 10.2041ZM12.9948 2.66806C13.1716 2.66806 13.3412 2.59782 13.4662 2.4728C13.5912 2.34777 13.6615 2.1782 13.6615 2.00139C13.6615 1.82458 13.5912 1.65501 13.4662 1.52999C13.3412 1.40496 13.1716 1.33473 12.9948 1.33473H10.3281C10.2847 1.33891 10.2419 1.34755 10.2002 1.36053L10.1958 1.36142C10.1148 1.37762 10.0377 1.40919 9.96867 1.45444L9.95561 1.46327C9.89184 1.50725 9.83646 1.56229 9.79208 1.62579C9.78683 1.63299 9.77874 1.63653 9.77377 1.64397C9.76901 1.65113 9.76884 1.6596 9.76437 1.66688C9.71679 1.75194 9.68593 1.84532 9.67346 1.94199C9.67156 1.96258 9.66146 1.98032 9.66146 2.00139V4.66806C9.66146 4.84487 9.7317 5.01444 9.85672 5.13946C9.98175 5.26449 10.1513 5.33472 10.3281 5.33472C10.5049 5.33472 10.6745 5.26449 10.7995 5.13946C10.9246 5.01444 10.9948 4.84487 10.9948 4.66806V3.47947C11.854 4.45145 12.3282 5.70404 12.3281 7.00136C12.3283 7.19742 12.3165 7.39331 12.293 7.58795C12.2718 7.76343 12.3212 7.94013 12.4302 8.07927C12.5392 8.21841 12.6989 8.30863 12.8744 8.33014C12.9014 8.33327 12.9285 8.33479 12.9557 8.33469C13.1185 8.33448 13.2756 8.27471 13.3973 8.16665C13.5191 8.05858 13.597 7.90971 13.6165 7.74811C13.6467 7.50035 13.6617 7.25098 13.6615 7.00139C13.6605 5.4106 13.0888 3.87297 12.0501 2.66806H12.9948Z" fill="#4F5665"/>
</svg>
