<svg width="16" height="16" viewBox="0 0 16 16" fill="none" xmlns="http://www.w3.org/2000/svg">
<path d="M11.3327 7.33341H11.9993C12.1762 7.33341 12.3457 7.26318 12.4708 7.13815C12.5958 7.01313 12.666 6.84356 12.666 6.66675V6.00008C12.666 5.82327 12.5958 5.6537 12.4708 5.52868C12.3457 5.40365 12.1762 5.33341 11.9993 5.33341H11.3327C11.1559 5.33341 10.9863 5.40365 10.8613 5.52868C10.7363 5.6537 10.666 5.82327 10.666 6.00008V6.66675C10.666 6.84356 10.7363 7.01313 10.8613 7.13815C10.9863 7.26318 11.1559 7.33341 11.3327 7.33341ZM3.99935 8.00008H7.33268C7.50949 8.00008 7.67906 7.92984 7.80409 7.80482C7.92911 7.67979 7.99935 7.51023 7.99935 7.33341C7.99935 7.1566 7.92911 6.98703 7.80409 6.86201C7.67906 6.73699 7.50949 6.66675 7.33268 6.66675H3.99935C3.82254 6.66675 3.65297 6.73699 3.52794 6.86201C3.40292 6.98703 3.33268 7.1566 3.33268 7.33341C3.33268 7.51023 3.40292 7.67979 3.52794 7.80482C3.65297 7.92984 3.82254 8.00008 3.99935 8.00008ZM14.666 2.66675H1.33268C1.15587 2.66675 0.986302 2.73699 0.861278 2.86201C0.736253 2.98703 0.666016 3.1566 0.666016 3.33341V12.6667C0.666016 12.8436 0.736253 13.0131 0.861278 13.1382C0.986302 13.2632 1.15587 13.3334 1.33268 13.3334H14.666C14.8428 13.3334 15.0124 13.2632 15.1374 13.1382C15.2624 13.0131 15.3327 12.8436 15.3327 12.6667V3.33341C15.3327 3.1566 15.2624 2.98703 15.1374 2.86201C15.0124 2.73699 14.8428 2.66675 14.666 2.66675ZM13.9993 12.0001H1.99935V4.00008H13.9993V12.0001ZM3.99935 10.6667H7.33268C7.50949 10.6667 7.67906 10.5965 7.80409 10.4715C7.92911 10.3465 7.99935 10.1769 7.99935 10.0001C7.99935 9.82327 7.92911 9.6537 7.80409 9.52868C7.67906 9.40365 7.50949 9.33341 7.33268 9.33341H3.99935C3.82254 9.33341 3.65297 9.40365 3.52794 9.52868C3.40292 9.6537 3.33268 9.82327 3.33268 10.0001C3.33268 10.1769 3.40292 10.3465 3.52794 10.4715C3.65297 10.5965 3.82254 10.6667 3.99935 10.6667Z" fill="#4F5665"/>
</svg>
