<svg width="12" height="16" viewBox="0 0 12 16" fill="none" xmlns="http://www.w3.org/2000/svg">
<path fill-rule="evenodd" clip-rule="evenodd" d="M5.89701 14.4414C3.4358 14.4414 1.33398 14.0584 1.33398 12.5245C1.33398 10.9907 3.42247 9.57471 5.89701 9.57471C8.35823 9.57471 10.46 10.9769 10.46 12.5108C10.46 14.044 8.37156 14.4414 5.89701 14.4414Z" stroke="#4F5665" stroke-width="1.5" stroke-linecap="round" stroke-linejoin="round"/>
<path fill-rule="evenodd" clip-rule="evenodd" d="M5.89166 7.44919C7.50681 7.44919 8.81591 6.1401 8.81591 4.52495C8.81591 2.90979 7.50681 1.6001 5.89166 1.6001C4.27651 1.6001 2.96681 2.90979 2.96681 4.52495C2.96136 6.13464 4.26136 7.44373 5.87106 7.44919C5.87833 7.44919 5.885 7.44919 5.89166 7.44919Z" stroke="#4F5665" stroke-width="1.5" stroke-linecap="round" stroke-linejoin="round"/>
</svg>
