<svg width="16" height="16" viewBox="0 0 16 16" fill="none" xmlns="http://www.w3.org/2000/svg">
<path d="M3.99935 12.9999C4.73572 12.9999 5.33268 12.403 5.33268 11.6666C5.33268 10.9302 4.73572 10.3333 3.99935 10.3333C3.26297 10.3333 2.66602 10.9302 2.66602 11.6666C2.66602 12.403 3.26297 12.9999 3.99935 12.9999Z" stroke="#4F5665" stroke-linejoin="round"/>
<path d="M11.6673 12.9999C12.4037 12.9999 13.0007 12.403 13.0007 11.6666C13.0007 10.9302 12.4037 10.3333 11.6673 10.3333C10.931 10.3333 10.334 10.9302 10.334 11.6666C10.334 12.403 10.931 12.9999 11.6673 12.9999Z" stroke="#4F5665" stroke-linejoin="round"/>
<path d="M2.66602 11.6667H0.666016V3.66675H10.3327V11.6667H5.33268" stroke="#4F5665" stroke-linecap="round" stroke-linejoin="round"/>
<path d="M10.334 11.6667V6H13.1911L15.334 8.83333V11.6667H13.2711" stroke="#4F5665" stroke-linecap="round" stroke-linejoin="round"/>
</svg>
