<svg width="14" height="14" viewBox="0 0 14 14" fill="none" xmlns="http://www.w3.org/2000/svg">
<path d="M13.2732 5.13128L9.30601 4.55472L7.53257 0.959405C7.48414 0.860968 7.40445 0.78128 7.30601 0.732843C7.05914 0.610968 6.75914 0.71253 6.6357 0.959405L4.86226 4.55472L0.895073 5.13128C0.785698 5.14691 0.685698 5.19847 0.609136 5.27659C0.516576 5.37173 0.465571 5.49972 0.467329 5.63244C0.469087 5.76516 0.523464 5.89176 0.618511 5.98441L3.48882 8.78284L2.8107 12.7344C2.7948 12.8263 2.80497 12.9209 2.84006 13.0073C2.87515 13.0937 2.93376 13.1686 3.00924 13.2234C3.08472 13.2783 3.17405 13.3108 3.2671 13.3175C3.36015 13.3241 3.4532 13.3045 3.5357 13.261L7.08414 11.3953L10.6326 13.261C10.7294 13.3125 10.8419 13.3297 10.9498 13.311C11.2216 13.2641 11.4044 13.0063 11.3576 12.7344L10.6794 8.78284L13.5498 5.98441C13.6279 5.90784 13.6794 5.80784 13.6951 5.69847C13.7373 5.42503 13.5466 5.17191 13.2732 5.13128Z" fill="#FF8906"/>
</svg>
