<svg width="16" height="17" viewBox="0 0 16 17" fill="none" xmlns="http://www.w3.org/2000/svg">
<path d="M3 3L13 14" stroke="#4F5665" stroke-linecap="round" stroke-linejoin="round"/>
<path d="M9.68155 10.3501C9.19092 10.7961 8.54325 11.0289 7.88099 10.9973C7.21874 10.9657 6.59614 10.6724 6.15016 10.1818C5.70417 9.69121 5.47132 9.04356 5.50283 8.3813C5.53433 7.71904 5.82762 7.09642 6.31816 6.65039" stroke="#4F5665" stroke-linecap="round" stroke-linejoin="round"/>
<path d="M4.62465 4.78711C2.07657 6.07746 1 8.50001 1 8.50001C1 8.50001 3 12.9995 8 12.9995C9.1715 13.0089 10.3284 12.739 11.3748 12.2124" stroke="#4F5665" stroke-linecap="round" stroke-linejoin="round"/>
<path d="M13.0383 11.0687C14.4009 9.84827 15.0002 8.50001 15.0002 8.50001C15.0002 8.50001 13.0002 3.99952 8.00016 3.99952C7.56711 3.99881 7.13475 4.03402 6.70752 4.10478" stroke="#4F5665" stroke-linecap="round" stroke-linejoin="round"/>
<path d="M8.4707 6.04443C9.00206 6.14647 9.48601 6.41803 9.84997 6.81839C10.2139 7.21875 10.4383 7.72633 10.4893 8.26498" stroke="#4F5665" stroke-linecap="round" stroke-linejoin="round"/>
</svg>
