<svg width="16" height="17" viewBox="0 0 16 17" fill="none" xmlns="http://www.w3.org/2000/svg">
<g clip-path="url(#clip0_85_1638)">
<path fill-rule="evenodd" clip-rule="evenodd" d="M1.75012 2.5C0.783624 2.5 0.000122075 3.2835 0.000122075 4.25V4.98577C-4.08865e-05 4.99479 -4.04965e-05 5.00381 0.000122075 5.01282V12.75C0.000122075 13.7165 0.783623 14.5 1.75012 14.5H14.2501C15.2166 14.5 16.0001 13.7165 16.0001 12.75V5.01265C16.0003 5.00376 16.0003 4.99485 16.0001 4.98594V4.25C16.0001 3.2835 15.2166 2.5 14.2501 2.5H1.75012ZM14.5001 4.57029V4.25C14.5001 4.11193 14.3882 4 14.2501 4H1.75012C1.61205 4 1.50012 4.11193 1.50012 4.25V4.57029L8.00012 8.38063L14.5001 4.57029ZM1.50012 6.30902V12.75C1.50012 12.8881 1.61205 13 1.75012 13H14.2501C14.3882 13 14.5001 12.8881 14.5001 12.75V6.30902L8.37941 9.89702C8.14519 10.0343 7.85505 10.0343 7.62083 9.89702L1.50012 6.30902Z" fill="#4F5665"/>
</g>
<defs>
<clipPath id="clip0_85_1638">
<rect width="16" height="16" fill="white" transform="translate(0 0.5)"/>
</clipPath>
</defs>
</svg>
