<svg width="16" height="17" viewBox="0 0 16 17" fill="none" xmlns="http://www.w3.org/2000/svg">
<path fill-rule="evenodd" clip-rule="evenodd" d="M7.12607 8.50029C7.12607 9.18229 6.57341 9.73496 5.89141 9.73496C5.20941 9.73496 4.65674 9.18229 4.65674 8.50029C4.65674 7.81829 5.20941 7.26562 5.89141 7.26562H5.89341C6.57474 7.26629 7.12607 7.81896 7.12607 8.50029Z" stroke="#4F5665" stroke-linecap="round" stroke-linejoin="round"/>
<path d="M7.12793 8.5H11.3399V9.73467" stroke="#4F5665" stroke-linecap="round" stroke-linejoin="round"/>
<path d="M9.45492 9.73467V8.5" stroke="#4F5665" stroke-linecap="round" stroke-linejoin="round"/>
<path fill-rule="evenodd" clip-rule="evenodd" d="M1.8335 8.50016C1.8335 3.8755 3.3755 2.3335 8.00016 2.3335C12.6248 2.3335 14.1668 3.8755 14.1668 8.50016C14.1668 13.1248 12.6248 14.6668 8.00016 14.6668C3.3755 14.6668 1.8335 13.1248 1.8335 8.50016Z" stroke="#4F5665" stroke-linecap="round" stroke-linejoin="round"/>
</svg>
