<svg width="16" height="16" viewBox="0 0 16 16" fill="none" xmlns="http://www.w3.org/2000/svg">
<path fill-rule="evenodd" clip-rule="evenodd" d="M13.7777 6.60254H1.89502C1.61902 6.60254 1.39502 6.37854 1.39502 6.10254C1.39502 5.82654 1.61902 5.60254 1.89502 5.60254H13.7777C14.0537 5.60254 14.2777 5.82654 14.2777 6.10254C14.2777 6.37854 14.0537 6.60254 13.7777 6.60254Z" fill="#4F5665"/>
<path fill-rule="evenodd" clip-rule="evenodd" d="M10.8008 9.20605C10.5248 9.20605 10.2981 8.98205 10.2981 8.70605C10.2981 8.43005 10.5188 8.20605 10.7948 8.20605H10.8008C11.0768 8.20605 11.3008 8.43005 11.3008 8.70605C11.3008 8.98205 11.0768 9.20605 10.8008 9.20605Z" fill="#4F5665"/>
<path fill-rule="evenodd" clip-rule="evenodd" d="M7.84227 9.20605C7.56627 9.20605 7.3396 8.98205 7.3396 8.70605C7.3396 8.43005 7.56027 8.20605 7.83627 8.20605H7.84227C8.11827 8.20605 8.34227 8.43005 8.34227 8.70605C8.34227 8.98205 8.11827 9.20605 7.84227 9.20605Z" fill="#4F5665"/>
<path fill-rule="evenodd" clip-rule="evenodd" d="M4.87785 9.20605C4.60185 9.20605 4.37451 8.98205 4.37451 8.70605C4.37451 8.43005 4.59585 8.20605 4.87185 8.20605H4.87785C5.15385 8.20605 5.37785 8.43005 5.37785 8.70605C5.37785 8.98205 5.15385 9.20605 4.87785 9.20605Z" fill="#4F5665"/>
<path fill-rule="evenodd" clip-rule="evenodd" d="M10.8008 11.7974C10.5248 11.7974 10.2981 11.5734 10.2981 11.2974C10.2981 11.0214 10.5188 10.7974 10.7948 10.7974H10.8008C11.0768 10.7974 11.3008 11.0214 11.3008 11.2974C11.3008 11.5734 11.0768 11.7974 10.8008 11.7974Z" fill="#4F5665"/>
<path fill-rule="evenodd" clip-rule="evenodd" d="M7.84227 11.7974C7.56627 11.7974 7.3396 11.5734 7.3396 11.2974C7.3396 11.0214 7.56027 10.7974 7.83627 10.7974H7.84227C8.11827 10.7974 8.34227 11.0214 8.34227 11.2974C8.34227 11.5734 8.11827 11.7974 7.84227 11.7974Z" fill="#4F5665"/>
<path fill-rule="evenodd" clip-rule="evenodd" d="M4.87785 11.7974C4.60185 11.7974 4.37451 11.5734 4.37451 11.2974C4.37451 11.0214 4.59585 10.7974 4.87185 10.7974H4.87785C5.15385 10.7974 5.37785 11.0214 5.37785 11.2974C5.37785 11.5734 5.15385 11.7974 4.87785 11.7974Z" fill="#4F5665"/>
<path fill-rule="evenodd" clip-rule="evenodd" d="M10.5288 3.8605C10.2528 3.8605 10.0288 3.6365 10.0288 3.3605V1.1665C10.0288 0.890504 10.2528 0.666504 10.5288 0.666504C10.8048 0.666504 11.0288 0.890504 11.0288 1.1665V3.3605C11.0288 3.6365 10.8048 3.8605 10.5288 3.8605Z" fill="#4F5665"/>
<path fill-rule="evenodd" clip-rule="evenodd" d="M5.14355 3.8605C4.86755 3.8605 4.64355 3.6365 4.64355 3.3605V1.1665C4.64355 0.890504 4.86755 0.666504 5.14355 0.666504C5.41955 0.666504 5.64355 0.890504 5.64355 1.1665V3.3605C5.64355 3.6365 5.41955 3.8605 5.14355 3.8605Z" fill="#4F5665"/>
<mask id="mask0_99_2171" style="mask-type:luminance" maskUnits="userSpaceOnUse" x="1" y="1" width="14" height="14">
<path fill-rule="evenodd" clip-rule="evenodd" d="M1.33325 1.71924H14.3333V14.9998H1.33325V1.71924Z" fill="white"/>
</mask>
<g mask="url(#mask0_99_2171)">
<path fill-rule="evenodd" clip-rule="evenodd" d="M5.01392 2.71924C3.28525 2.71924 2.33325 3.64124 2.33325 5.31524V11.3479C2.33325 13.0586 3.28525 13.9999 5.01392 13.9999H10.6526C12.3813 13.9999 13.3333 13.0759 13.3333 11.3986V5.31524C13.3359 4.4919 13.1146 3.8519 12.6753 3.4119C12.2233 2.95857 11.5266 2.71924 10.6586 2.71924H5.01392ZM10.6526 14.9999H5.01392C2.74392 14.9999 1.33325 13.6006 1.33325 11.3479V5.31524C1.33325 3.09657 2.74392 1.71924 5.01392 1.71924H10.6586C11.7979 1.71924 12.7399 2.06057 13.3833 2.70524C14.0079 3.33257 14.3366 4.23457 14.3333 5.31657V11.3986C14.3333 13.6199 12.9226 14.9999 10.6526 14.9999Z" fill="#4F5665"/>
</g>
</svg>
