<svg width="16" height="16" viewBox="0 0 16 16" fill="none" xmlns="http://www.w3.org/2000/svg">
<path d="M12.6667 2.0002C12.4795 1.79097 12.2504 1.62348 11.9943 1.50862C11.7382 1.39376 11.4607 1.3341 11.18 1.33353H4.82C4.53778 1.33182 4.25838 1.38986 4.00019 1.50383C3.74199 1.61781 3.51085 1.78514 3.32194 1.99483C3.13303 2.20451 2.99064 2.45181 2.90413 2.72045C2.81762 2.9891 2.78895 3.27301 2.82 3.55353L3.86 12.8869C3.91438 13.3783 4.14887 13.8322 4.51822 14.1609C4.88756 14.4896 5.36557 14.6699 5.86 14.6669H10.14C10.6344 14.6699 11.1124 14.4896 11.4818 14.1609C11.8511 13.8322 12.0856 13.3783 12.14 12.8869L13.18 3.55353C13.2088 3.27306 13.1779 2.98968 13.0894 2.72198C13.001 2.45428 12.8569 2.20831 12.6667 2.0002ZM10.8 12.7402C10.7819 12.904 10.7037 13.0553 10.5806 13.1649C10.4575 13.2744 10.2981 13.3345 10.1333 13.3335H5.86C5.69519 13.3345 5.53585 13.2744 5.41274 13.1649C5.28963 13.0553 5.21146 12.904 5.19334 12.7402L4.52 6.66687H11.48L10.8 12.7402ZM11.6267 5.33353H4.37334L4.16 3.40687C4.1495 3.31334 4.15893 3.21864 4.18765 3.12902C4.21638 3.03939 4.26376 2.95687 4.32667 2.88687C4.389 2.8178 4.46509 2.76255 4.55006 2.72466C4.63502 2.68677 4.72697 2.66709 4.82 2.66687H11.18C11.273 2.66709 11.365 2.68677 11.4499 2.72466C11.5349 2.76255 11.611 2.8178 11.6733 2.88687C11.7362 2.95687 11.7836 3.03939 11.8124 3.12902C11.8411 3.21864 11.8505 3.31334 11.84 3.40687L11.6267 5.33353ZM9.33334 12.0002C9.51015 12.0002 9.67972 11.93 9.80474 11.8049C9.92976 11.6799 10 11.5103 10 11.3335V8.66687C10 8.49006 9.92976 8.32049 9.80474 8.19546C9.67972 8.07044 9.51015 8.0002 9.33334 8.0002C9.15653 8.0002 8.98696 8.07044 8.86193 8.19546C8.73691 8.32049 8.66667 8.49006 8.66667 8.66687V11.3335C8.66667 11.5103 8.73691 11.6799 8.86193 11.8049C8.98696 11.93 9.15653 12.0002 9.33334 12.0002ZM6.66667 12.0002C6.84348 12.0002 7.01305 11.93 7.13807 11.8049C7.2631 11.6799 7.33334 11.5103 7.33334 11.3335V8.66687C7.33334 8.49006 7.2631 8.32049 7.13807 8.19546C7.01305 8.07044 6.84348 8.0002 6.66667 8.0002C6.48986 8.0002 6.32029 8.07044 6.19526 8.19546C6.07024 8.32049 6 8.49006 6 8.66687V11.3335C6 11.5103 6.07024 11.6799 6.19526 11.8049C6.32029 11.93 6.48986 12.0002 6.66667 12.0002Z" fill="#4F5665"/>
</svg>
