<svg width="21" height="22" viewBox="0 0 21 22" fill="none" xmlns="http://www.w3.org/2000/svg">
<path fill-rule="evenodd" clip-rule="evenodd" d="M14.5134 20.5H6.16555C3.09919 20.5 0.746786 19.3925 1.41498 14.9348L2.19301 8.89363C2.60491 6.66937 4.02367 5.81812 5.26852 5.81812H15.447C16.7102 5.81812 18.0466 6.73345 18.5225 8.89363L19.3006 14.9348C19.8681 18.8891 17.5797 20.5 14.5134 20.5Z" stroke="#4F5665" stroke-width="1.5" stroke-linecap="round" stroke-linejoin="round"/>
<path d="M14.6502 5.59848C14.6502 3.21241 12.716 1.27812 10.3299 1.27812V1.27812C9.18088 1.27325 8.07727 1.72628 7.26308 2.53703C6.44889 3.34778 5.9912 4.44947 5.99121 5.59848H5.99121" stroke="#4F5665" stroke-width="1.5" stroke-linecap="round" stroke-linejoin="round"/>
<path d="M13.296 10.102H13.2502" stroke="#4F5665" stroke-width="1.5" stroke-linecap="round" stroke-linejoin="round"/>
<path d="M7.46492 10.102H7.41916" stroke="#4F5665" stroke-width="1.5" stroke-linecap="round" stroke-linejoin="round"/>
</svg>
