<svg width="16" height="20" viewBox="0 0 16 20" fill="none" xmlns="http://www.w3.org/2000/svg">
<path d="M15.0001 1.00006C14.7194 0.686209 14.3758 0.434969 13.9916 0.262679C13.6074 0.090389 13.1912 0.000907732 12.7701 5.52823e-05H3.23013C2.80679 -0.00251463 2.3877 0.0845434 2.00041 0.255506C1.61311 0.42647 1.26639 0.677466 0.983031 0.991997C0.69967 1.30653 0.486087 1.67747 0.356322 2.08044C0.226557 2.48341 0.18355 2.90928 0.230126 3.33006L1.79013 17.3301C1.87169 18.0672 2.22343 18.748 2.77744 19.2411C3.33146 19.7342 4.04848 20.0046 4.79013 20.0001H11.2101C11.9518 20.0046 12.6688 19.7342 13.2228 19.2411C13.7768 18.748 14.1286 18.0672 14.2101 17.3301L15.7701 3.33006C15.8133 2.90935 15.767 2.48428 15.6343 2.08272C15.5016 1.68117 15.2855 1.31221 15.0001 1.00006ZM12.2001 17.1101C12.1729 17.3558 12.0557 17.5827 11.871 17.7471C11.6863 17.9114 11.4473 18.0016 11.2001 18.0001H4.79013C4.54291 18.0016 4.3039 17.9114 4.11923 17.7471C3.93456 17.5827 3.81732 17.3558 3.79013 17.1101L2.78013 8.00006H13.2201L12.2001 17.1101ZM13.4401 6.00006H2.56013L2.24013 3.11006C2.22438 2.96976 2.23851 2.82772 2.2816 2.69328C2.32469 2.55885 2.39576 2.43506 2.49013 2.33006C2.58362 2.22646 2.69776 2.14358 2.82521 2.08675C2.95265 2.02992 3.09058 2.00039 3.23013 2.00006H12.7701C12.9097 2.00039 13.0476 2.02992 13.175 2.08675C13.3025 2.14358 13.4166 2.22646 13.5101 2.33006C13.6045 2.43506 13.6756 2.55885 13.7186 2.69328C13.7617 2.82772 13.7759 2.96976 13.7601 3.11006L13.4401 6.00006ZM10.0001 16.0001C10.2653 16.0001 10.5197 15.8947 10.7072 15.7072C10.8948 15.5196 11.0001 15.2653 11.0001 15.0001V11.0001C11.0001 10.7348 10.8948 10.4805 10.7072 10.2929C10.5197 10.1054 10.2653 10.0001 10.0001 10.0001C9.73491 10.0001 9.48056 10.1054 9.29302 10.2929C9.10548 10.4805 9.00013 10.7348 9.00013 11.0001V15.0001C9.00013 15.2653 9.10548 15.5196 9.29302 15.7072C9.48056 15.8947 9.73491 16.0001 10.0001 16.0001ZM6.00013 16.0001C6.26534 16.0001 6.5197 15.8947 6.70723 15.7072C6.89477 15.5196 7.00013 15.2653 7.00013 15.0001V11.0001C7.00013 10.7348 6.89477 10.4805 6.70723 10.2929C6.5197 10.1054 6.26534 10.0001 6.00013 10.0001C5.73491 10.0001 5.48056 10.1054 5.29302 10.2929C5.10548 10.4805 5.00013 10.7348 5.00013 11.0001V15.0001C5.00013 15.2653 5.10548 15.5196 5.29302 15.7072C5.48056 15.8947 5.73491 16.0001 6.00013 16.0001Z" fill="#4F5665"/>
</svg>
