<svg width="16" height="16" viewBox="0 0 16 16" fill="none" xmlns="http://www.w3.org/2000/svg">
<path d="M6.33333 4.66675C6.33333 4.29856 6.63181 4.00008 7 4.00008H11C11.3682 4.00008 11.6667 4.29856 11.6667 4.66675C11.6667 5.03494 11.3682 5.33341 11 5.33341H7C6.63181 5.33341 6.33333 5.03494 6.33333 4.66675Z" fill="#8E6447"/>
<path d="M7 7.33341C6.63181 7.33341 6.33333 7.63189 6.33333 8.00008C6.33333 8.36827 6.63181 8.66675 7 8.66675H11C11.3682 8.66675 11.6667 8.36827 11.6667 8.00008C11.6667 7.63189 11.3682 7.33341 11 7.33341H7Z" fill="#8E6447"/>
<path d="M6.33333 11.3334C6.33333 10.9652 6.63181 10.6667 7 10.6667H11C11.3682 10.6667 11.6667 10.9652 11.6667 11.3334C11.6667 11.7016 11.3682 12.0001 11 12.0001H7C6.63181 12.0001 6.33333 11.7016 6.33333 11.3334Z" fill="#8E6447"/>
<path d="M5.66667 4.66675C5.66667 5.03495 5.3682 5.33341 5 5.33341C4.6318 5.33341 4.33333 5.03495 4.33333 4.66675C4.33333 4.29855 4.6318 4.00008 5 4.00008C5.3682 4.00008 5.66667 4.29855 5.66667 4.66675Z" fill="#8E6447"/>
<path d="M5 8.66675C5.3682 8.66675 5.66667 8.36828 5.66667 8.00008C5.66667 7.63188 5.3682 7.33341 5 7.33341C4.6318 7.33341 4.33333 7.63188 4.33333 8.00008C4.33333 8.36828 4.6318 8.66675 5 8.66675Z" fill="#8E6447"/>
<path d="M5.66667 11.3334C5.66667 11.7016 5.3682 12.0001 5 12.0001C4.6318 12.0001 4.33333 11.7016 4.33333 11.3334C4.33333 10.9652 4.6318 10.6667 5 10.6667C5.3682 10.6667 5.66667 10.9652 5.66667 11.3334Z" fill="#8E6447"/>
<path fill-rule="evenodd" clip-rule="evenodd" d="M2 2.00008C2 1.2637 2.59695 0.666748 3.33333 0.666748H12.6667C13.403 0.666748 14 1.2637 14 2.00008V14.0001C14 14.7365 13.403 15.3334 12.6667 15.3334H3.33333C2.59695 15.3334 2 14.7365 2 14.0001V2.00008ZM12.6667 2.00008H3.33333V14.0001H12.6667V2.00008Z" fill="#8E6447"/>
</svg>
