<svg width="14" height="14" viewBox="0 0 14 14" fill="none" xmlns="http://www.w3.org/2000/svg">
<path d="M13.0396 5.13128L9.07237 4.55472L7.29893 0.959405C7.25049 0.860968 7.17081 0.78128 7.07237 0.732843C6.82549 0.610968 6.52549 0.71253 6.40206 0.959405L4.62862 4.55472L0.661431 5.13128C0.552056 5.14691 0.452056 5.19847 0.375493 5.27659C0.282933 5.37173 0.231929 5.49972 0.233687 5.63244C0.235444 5.76516 0.289821 5.89176 0.384868 5.98441L3.25518 8.78284L2.57706 12.7344C2.56115 12.8263 2.57133 12.9209 2.60642 13.0073C2.64151 13.0937 2.70012 13.1686 2.7756 13.2234C2.85108 13.2783 2.94041 13.3108 3.03346 13.3175C3.12651 13.3241 3.21956 13.3045 3.30206 13.261L6.85049 11.3953L10.3989 13.261C10.4958 13.3125 10.6083 13.3297 10.7161 13.311C10.988 13.2641 11.1708 13.0063 11.1239 12.7344L10.4458 8.78284L13.3161 5.98441C13.3942 5.90784 13.4458 5.80784 13.4614 5.69847C13.5036 5.42503 13.313 5.17191 13.0396 5.13128Z" fill="#FF8906"/>
</svg>
