<svg width="39" height="14" viewBox="0 0 39 14" fill="none" xmlns="http://www.w3.org/2000/svg">
<g clip-path="url(#clip0_99_1575)">
<path fill-rule="evenodd" clip-rule="evenodd" d="M6.70031 1.16943C6.68788 1.16943 6.67546 1.16943 6.66303 1.16943C4.994 1.16943 3.38813 1.55954 1.83195 2.34654C1.20037 3.85796 0.844203 5.39441 0.825566 6.96215C0.800717 8.51737 1.1191 10.1101 1.82522 11.7347C3.45025 12.4461 5.07528 12.8112 6.70031 12.8305C8.32533 12.8112 9.95036 12.4461 11.5749 11.7347C12.2815 10.1101 12.5999 8.51737 12.575 6.96215C12.5564 5.39441 12.2002 3.85796 11.5687 2.34654C10.0125 1.55954 8.40661 1.16943 6.73758 1.16943C6.72516 1.16943 6.71273 1.16943 6.70031 1.16943Z" fill="#FEFEFE"/>
<path d="M1.56958 2.00072C3.20703 1.15688 4.90661 0.741211 6.66313 0.741211C6.67555 0.741211 6.68798 0.741211 6.7004 0.741211C6.71282 0.741211 6.72525 0.741211 6.73767 0.741211C8.49419 0.741211 10.1938 1.15688 11.8312 2.00072L11.9317 2.10764C12.6 3.69415 12.9815 5.31249 13.0002 6.95585C13.0002 6.98714 13.0002 7.01217 13.0002 7.04399V7.15716C12.994 8.73742 12.6564 10.3495 11.9317 11.9866L11.8188 12.0935C10.113 12.8555 8.4067 13.2393 6.7004 13.2586C4.99409 13.2393 3.28779 12.8555 1.582 12.0935L1.46915 11.9866C0.744381 10.3495 0.406847 8.73742 0.400635 7.15716V7.04399C0.400635 7.01217 0.400635 6.98714 0.400635 6.95585C0.419272 5.31249 0.800809 3.69415 1.46915 2.10764L1.56958 2.00072ZM6.7004 1.16939C6.68798 1.16939 6.67555 1.16939 6.66313 1.16939C4.99409 1.16939 3.38822 1.5595 1.83205 2.3465C1.20047 3.85792 0.844295 5.39437 0.825658 6.96211C0.800809 8.51733 1.11919 10.1101 1.82532 11.7347C3.45034 12.4461 5.07537 12.8111 6.7004 12.8304C8.32543 12.8111 9.95046 12.4461 11.575 11.7347C12.2816 10.1101 12.6 8.51733 12.5751 6.96211C12.5565 5.39437 12.2003 3.85792 11.5688 2.3465C10.0126 1.5595 8.4067 1.16939 6.73767 1.16939C6.72525 1.16939 6.71282 1.16939 6.7004 1.16939Z" fill="#003399"/>
<path fill-rule="evenodd" clip-rule="evenodd" d="M6.81225 10.4945C6.72476 9.29184 6.78119 8.03858 6.42502 6.89277C6.09369 5.82257 4.83726 5.21185 4.81241 4.03422C4.78756 3.11475 5.48127 2.05081 6.78119 2.05081C7.99983 2.04456 8.75617 2.93847 8.84366 3.93356C8.94979 5.08564 7.56238 5.86012 7.2 6.95587C6.82467 8.07665 6.93132 9.31687 6.81225 10.4945Z" fill="#003399"/>
<path fill-rule="evenodd" clip-rule="evenodd" d="M7.2933 10.2046C7.24308 9.15945 7.24308 8.15862 7.53092 7.27044C7.8493 6.26335 8.51194 5.41324 9.52454 5.13631C10.2182 4.94751 11.2365 5.7658 11.0745 6.60339C10.9368 7.27722 10.2679 8.07048 9.19322 8.15862C8.69313 8.20243 8.48088 8.60557 8.16819 8.8387C9.56803 8.69997 10.4745 8.1461 11.1056 7.56667C11.1993 8.05744 11.2619 8.88251 10.8804 9.16571C10.1308 9.7008 9.43705 9.26636 8.55542 9.51826C8.06207 9.66325 7.75559 9.97826 7.2933 10.2046Z" fill="#003399"/>
<path fill-rule="evenodd" clip-rule="evenodd" d="M6.33864 10.2046C6.39455 9.15945 6.38833 8.15862 6.10723 7.27044C5.78833 6.26335 5.12621 5.41324 4.11361 5.13631C3.4199 4.94751 2.39488 5.7658 2.56364 6.60339C2.70135 7.27722 3.36969 8.07048 4.44493 8.15862C4.9388 8.20243 5.15727 8.60557 5.46995 8.8387C4.06339 8.69997 3.16365 8.1461 2.53258 7.56667C2.43888 8.05744 2.37624 8.88251 2.75726 9.16571C3.50739 9.7008 4.2011 9.26636 5.0822 9.51826C5.57608 9.66325 5.87582 9.97826 6.33864 10.2046Z" fill="#003399"/>
<path fill-rule="evenodd" clip-rule="evenodd" d="M9.66915 11.76V11.5899L9.79443 11.5587L9.66915 11.3699V11.0548L10.2319 11.8418L10.032 11.8924L9.89434 11.6969L9.66915 11.76ZM9.66915 11.0548V11.3699L9.58166 11.2436L9.54438 11.6218L9.66915 11.5899V11.76L9.52575 11.7918L9.50038 12.0244L9.30055 12.075L9.43204 11.0486L9.63187 10.998L9.66915 11.0548ZM7.80701 12.3081V12.1443H7.8505C7.91935 12.1381 7.96336 12.1318 7.98199 12.125C8.00684 12.1188 8.03169 12.1 8.04463 12.0812C8.06327 12.0562 8.06948 12.0306 8.06948 11.9994C8.06327 11.9681 8.05706 11.9425 8.0379 11.9237C8.02548 11.905 8.00063 11.8924 7.97578 11.8862C7.95093 11.8799 7.8945 11.8799 7.80701 11.8862V11.7224C7.85671 11.7224 7.88829 11.7162 7.90072 11.7162C7.93178 11.7099 7.95715 11.6906 7.97578 11.6718C7.99442 11.653 8.00063 11.628 7.99442 11.5962C7.99442 11.5649 7.98199 11.5399 7.96336 11.5268C7.95093 11.5081 7.92557 11.4955 7.88829 11.4955C7.87587 11.4955 7.8505 11.4955 7.80701 11.5018V11.338C7.87587 11.3318 7.92557 11.3318 7.95714 11.338C7.99442 11.338 8.03169 11.3511 8.06327 11.3699C8.09433 11.3824 8.11918 11.4074 8.14455 11.4387C8.16319 11.4705 8.17561 11.5081 8.18182 11.5524C8.18803 11.5962 8.17561 11.6405 8.15697 11.6781C8.13834 11.7162 8.10676 11.7474 8.06327 11.7725C8.12539 11.7855 8.17561 11.8106 8.20667 11.8481C8.24446 11.8862 8.2631 11.93 8.26931 11.9868C8.26931 12.0306 8.2631 12.075 8.25068 12.1188C8.23204 12.1631 8.20667 12.1944 8.17561 12.2262C8.13834 12.2513 8.10054 12.27 8.05085 12.2825C8.01927 12.2888 7.93799 12.2951 7.81944 12.3081H7.80701ZM8.98787 11.7787L9.182 11.8043C9.16957 11.9112 9.138 11.9994 9.08209 12.0625C9.02566 12.1188 8.94438 12.1631 8.84447 12.1819C8.71918 12.2007 8.60685 12.1756 8.51314 12.1063C8.41323 12.0306 8.3568 11.9237 8.32574 11.7725C8.30037 11.6155 8.31953 11.483 8.38786 11.3824C8.4505 11.2817 8.55042 11.2186 8.68191 11.1936C8.80046 11.1743 8.89416 11.1936 8.98165 11.2499C9.03187 11.2817 9.07536 11.3318 9.10693 11.4074L8.92574 11.483C8.90711 11.4387 8.87553 11.4011 8.83825 11.3824C8.79425 11.3573 8.75076 11.3511 8.70055 11.3573C8.6317 11.3699 8.582 11.4074 8.54421 11.4643C8.50693 11.5268 8.50072 11.6092 8.51936 11.7224C8.54421 11.8418 8.582 11.9237 8.6317 11.9681C8.68191 12.0119 8.74455 12.0306 8.81289 12.0181C8.8631 12.0056 8.90089 11.9806 8.93195 11.9425C8.96302 11.905 8.98165 11.8481 8.98787 11.7787ZM7.80701 11.338V11.5018C7.78217 11.5018 7.7568 11.5081 7.72574 11.5081L7.6134 11.5211L7.63203 11.7412L7.76301 11.7287C7.77544 11.7287 7.79459 11.7287 7.80701 11.7224V11.8862C7.80701 11.8862 7.80701 11.8862 7.8008 11.8862L7.65067 11.8987L7.66931 12.1569L7.80701 12.1443V12.3081L7.49433 12.3394L7.40684 11.3761L7.78838 11.3448C7.79459 11.338 7.8008 11.338 7.80701 11.338ZM6.6008 11.9743V11.8106C6.64428 11.8106 6.66965 11.8043 6.68829 11.798C6.71314 11.7918 6.73177 11.7725 6.75093 11.7537C6.76335 11.7287 6.76956 11.7036 6.76956 11.6781C6.77578 11.6405 6.76335 11.6155 6.7442 11.5899C6.72556 11.5649 6.70071 11.5524 6.66965 11.5461C6.65049 11.5461 6.63186 11.5399 6.6008 11.5399V11.3761C6.6945 11.3761 6.75093 11.3824 6.78199 11.3949C6.83842 11.4074 6.8819 11.4387 6.91969 11.4893C6.95697 11.5399 6.9756 11.6025 6.96939 11.6781C6.96939 11.7349 6.95697 11.7855 6.93833 11.8293C6.91296 11.8669 6.88811 11.8987 6.85705 11.9237C6.81926 11.9425 6.7882 11.955 6.75093 11.9681C6.71314 11.9743 6.66344 11.9743 6.6008 11.9743ZM6.6008 11.3761V11.5399C6.58216 11.5399 6.55679 11.5399 6.52573 11.5399L6.43203 11.5336V11.8106H6.53194C6.55679 11.8106 6.58216 11.8106 6.6008 11.8106V11.9743C6.58837 11.9743 6.56922 11.9743 6.55058 11.9743H6.42582L6.41961 12.3394L6.22547 12.3331L6.24463 11.3699L6.55058 11.3761C6.56922 11.3761 6.58837 11.3761 6.6008 11.3761ZM4.79458 11.8799V11.5837C4.851 11.5962 4.88828 11.5962 4.90691 11.5962C4.93228 11.5899 4.95092 11.5837 4.96956 11.5649C4.98198 11.5461 4.9944 11.5268 5.00062 11.4955C5.00683 11.4643 5.00062 11.4387 4.98819 11.4137C4.97577 11.3886 4.95092 11.3761 4.91934 11.3636C4.90691 11.3573 4.86343 11.3511 4.79458 11.338V11.1743L4.87585 11.1873C4.97577 11.2061 5.04462 11.2249 5.08811 11.2499C5.13211 11.2755 5.16317 11.313 5.18181 11.3636C5.20096 11.4074 5.20717 11.4643 5.19475 11.5211C5.18181 11.5899 5.15075 11.6468 5.10105 11.6843C5.05704 11.7224 4.98819 11.7412 4.9007 11.7412C4.93849 11.7725 4.96956 11.8043 4.98819 11.8356C5.01304 11.8737 5.03841 11.93 5.06947 12.0119L5.15075 12.22L4.92555 12.1756L4.82564 11.9425C4.81321 11.9237 4.807 11.8987 4.79458 11.8799ZM5.34436 11.2817L5.53177 11.3005L5.48828 11.8231C5.48207 11.905 5.48207 11.9618 5.48207 11.9806C5.48828 12.0244 5.50692 12.0562 5.53177 12.0812C5.56335 12.1125 5.60062 12.125 5.65705 12.1318C5.71348 12.1381 5.75696 12.125 5.78181 12.1063C5.81339 12.0875 5.83203 12.0625 5.84445 12.0306C5.85066 11.9994 5.85688 11.9425 5.86309 11.8669L5.90709 11.3318L6.10071 11.3511L6.05722 11.8544C6.05101 11.9743 6.03807 12.0562 6.01943 12.1C6.00701 12.1443 5.98216 12.1881 5.95679 12.2132C5.92573 12.245 5.88224 12.27 5.83203 12.2825C5.78802 12.3018 5.7259 12.3018 5.65084 12.2951C5.55713 12.2888 5.48828 12.27 5.44428 12.245C5.40079 12.22 5.363 12.1881 5.33815 12.1569C5.3133 12.1188 5.30088 12.0812 5.29466 12.0437C5.28845 11.9868 5.28845 11.905 5.29466 11.798L5.34436 11.2817ZM3.82598 11.5649L3.86325 11.4074L4.26964 11.5143L4.16972 11.8862C4.11951 11.9175 4.05687 11.9362 3.96938 11.9425C3.8881 11.9488 3.81355 11.9425 3.73849 11.9237C3.63806 11.8987 3.5573 11.8544 3.50087 11.798C3.43823 11.7349 3.40095 11.6593 3.38232 11.5774C3.36938 11.4893 3.36938 11.4011 3.39474 11.313C3.41959 11.2186 3.46308 11.1367 3.52572 11.0674C3.58215 11.0048 3.65721 10.9667 3.7447 10.9479C3.81355 10.9292 3.89431 10.9354 3.98232 10.9604C4.09466 10.9917 4.18215 11.0361 4.23185 11.1054C4.28206 11.168 4.30691 11.2499 4.3007 11.338L4.10708 11.3255C4.10708 11.2755 4.09466 11.2311 4.06308 11.1936C4.03202 11.1618 3.99475 11.1305 3.93832 11.118C3.85704 11.0992 3.78819 11.1054 3.72555 11.143C3.66342 11.1811 3.61942 11.2562 3.58836 11.3573C3.5573 11.4705 3.56351 11.5587 3.59457 11.628C3.63184 11.6969 3.68827 11.7412 3.76334 11.76C3.80682 11.7725 3.84461 11.7725 3.8881 11.7725C3.9321 11.7662 3.96938 11.7537 4.00717 11.7412L4.03823 11.6218L3.82598 11.5649ZM4.79458 11.1743L4.46947 11.118L4.30691 12.0687L4.49432 12.1L4.56317 11.7036L4.60717 11.7099C4.65066 11.7162 4.68224 11.7287 4.70087 11.7349C4.71951 11.7474 4.73194 11.7662 4.75057 11.7855C4.75678 11.8043 4.77594 11.8356 4.79458 11.8799V11.5837C4.77594 11.5837 4.75678 11.5774 4.73194 11.5774L4.59475 11.5524L4.63202 11.313L4.78215 11.338C4.78836 11.338 4.79458 11.338 4.79458 11.338V11.1743Z" fill="#003399"/>
<path fill-rule="evenodd" clip-rule="evenodd" d="M34.5811 9.99708V8.22125H35.3561V5.09828L34.5811 6.65976V2.76232H37.6246L38.3996 11.7411H35.3561V9.99708H34.5811ZM34.5811 2.76232V6.65976L33.8061 8.22125H34.5811V9.99708H33.1186L32.5186 11.6467H30.6311V9.59393L32.7371 5.0164H32.3059L33.5059 2.76232H34.5811ZM30.6311 5.75333L31.5749 3.49925L30.6311 2.97041V5.75333ZM23.1251 4.89071C23.1692 4.63255 23.1692 4.38065 23.1251 4.14126V4.89071ZM30.6311 2.97041V5.75333L30.5064 6.0553C28.6437 4.71443 25.8938 5.93587 25.7374 7.35237C25.5816 8.83197 26.7003 10.0284 29.5564 9.13446L28.5749 11.7787C24.8066 12.2006 23.3441 10.6959 23.1251 8.9394V7.94431C23.1816 7.48484 23.3001 7.03788 23.4627 6.62221C25.3191 1.97532 28.331 3.02048 29.4751 2.93234L29.6439 2.41602L30.6311 2.97041ZM30.6311 9.59393L29.6874 11.6467H30.6311V9.59393ZM19.7379 11.5899C21.7564 11.1872 23.7376 8.74383 21.7502 6.79849C22.5251 6.38283 23.0066 5.6339 23.1251 4.89071V4.14126C22.988 3.36678 22.3942 2.73728 21.2754 2.71851L19.7379 2.68669V4.41194H20.3752C21.0565 4.41194 20.969 6.18777 20.1189 6.18777H19.7379V7.54794C20.6568 7.72422 20.3317 9.00825 19.7379 9.40514V11.5899ZM23.1251 7.94431V8.9394C23.0879 8.61188 23.0879 8.27809 23.1251 7.94431ZM17.0754 2.63037L15.8319 5.06073L16.3879 5.0164L14.8882 11.6467H19.1819C19.3693 11.6467 19.5505 11.6279 19.7379 11.5899V9.40514C19.6318 9.48076 19.5127 9.52457 19.3942 9.52457H17.8504L18.3629 7.52865H19.5189C19.6002 7.52865 19.6753 7.5349 19.7379 7.54794V6.18777H18.6627L19.0939 4.41194H19.7379V2.68669L17.0754 2.63037Z" fill="#003399"/>
</g>
<defs>
<clipPath id="clip0_99_1575">
<rect width="38" height="12.5174" fill="white" transform="translate(0.399902 0.741211)"/>
</clipPath>
</defs>
</svg>
