<svg width="39" height="14" viewBox="0 0 39 14" fill="none" xmlns="http://www.w3.org/2000/svg">
<g clip-path="url(#clip0_99_1584)">
<path d="M21.2488 11.5733C21.2097 12.3099 20.8819 12.8139 20.2534 13.1197C20.0707 13.2081 19.9005 13.138 19.8176 12.9509C19.7534 12.806 19.8269 12.6419 19.9987 12.565C20.4439 12.3664 20.6391 11.9591 20.6308 11.5754C20.6204 11.1085 20.3416 10.7525 19.9026 10.5994C19.4798 10.4524 19.0382 10.5952 18.7261 10.9805C18.4865 11.2764 18.4662 11.7877 18.6765 12.1301C18.7929 12.3204 18.9469 12.4636 19.1494 12.5593C19.3405 12.6492 19.4078 12.8155 19.3305 12.9801C19.2517 13.1479 19.0649 13.2018 18.8775 13.1066C18.3743 12.8526 18.0444 12.4573 17.9437 11.8964C17.7844 11.0097 18.3372 10.2146 19.1338 9.99396C20.0754 9.73309 20.9795 10.3291 21.1904 11.1912C21.2232 11.3271 21.2332 11.4693 21.2488 11.5733Z" fill="#00AA11"/>
<path d="M23.6527 10.6728C23.6579 10.6023 23.6616 10.5463 23.6663 10.482C23.8291 10.482 23.9857 10.482 24.1522 10.482C24.1559 10.5176 24.1627 10.5515 24.1627 10.5855C24.1632 11.1606 24.1658 11.7362 24.1616 12.3118C24.1585 12.6667 24.0217 12.959 23.7049 13.1378C23.3082 13.3626 22.6891 13.292 22.3347 12.9935C22.3013 12.9653 22.2694 12.9355 22.2303 12.9004C22.3357 12.7964 22.4391 12.6945 22.5529 12.5826C22.7298 12.7248 22.9282 12.7964 23.1599 12.7896C23.5175 12.7786 23.6939 12.5826 23.6475 12.2009C23.3479 12.4357 23.018 12.4446 22.6823 12.3322C22.4824 12.2652 22.3248 12.1314 22.2125 11.9443C21.9761 11.5495 22.0372 11.0487 22.3644 10.7429C22.7152 10.4151 23.2455 10.3816 23.6527 10.6728ZM23.6323 11.4377C23.6323 11.1041 23.4517 10.9222 23.1229 10.9253C22.8133 10.928 22.6051 11.1313 22.5936 11.4136C22.579 11.7822 22.818 11.9479 23.1344 11.9437C23.4596 11.939 23.6323 11.767 23.6323 11.4377Z" fill="black"/>
<path d="M31.8964 10.4765C31.5968 10.7593 31.3238 11.0175 31.0466 11.2795C31.3285 11.6548 31.6041 12.0218 31.8985 12.4139C31.697 12.4139 31.5305 12.4191 31.3645 12.4102C31.3259 12.4082 31.2799 12.3669 31.2538 12.3318C31.1004 12.1269 30.9527 11.9178 30.8023 11.7108C30.7773 11.6757 30.7501 11.6423 30.7052 11.5827C30.5972 11.7066 30.4594 11.8038 30.4124 11.9345C30.3634 12.071 30.4015 12.2388 30.4015 12.4144C30.3117 12.4144 30.2339 12.4144 30.1561 12.4144C30.082 12.4144 30.0074 12.4144 29.9212 12.4144C29.9176 12.3564 29.9129 12.3099 29.9129 12.2628C29.9124 11.5372 29.916 10.811 29.9087 10.0849C29.9077 9.9453 29.9505 9.90505 30.082 9.91916C30.1817 9.93014 30.283 9.92125 30.3999 9.92125C30.3999 10.3625 30.3999 10.788 30.3999 11.2497C30.5518 11.1122 30.6786 10.9998 30.8029 10.8848C30.9297 10.7682 31.0529 10.6479 31.1802 10.5324C31.2079 10.5073 31.246 10.4796 31.2805 10.4785C31.4726 10.4738 31.6652 10.4765 31.8964 10.4765Z" fill="black"/>
<path d="M28.1457 11.61C28.1759 11.8149 28.3717 11.9718 28.5972 11.9895C28.7877 12.0047 28.9662 11.977 29.1218 11.8531C29.1468 11.8332 29.2001 11.8175 29.2215 11.8306C29.3259 11.8949 29.4235 11.9691 29.5331 12.0465C29.1954 12.3837 28.8107 12.4762 28.3691 12.367C28.0094 12.2781 27.749 12.0758 27.6644 11.7067C27.4812 10.9032 28.0992 10.372 28.8133 10.4933C29.2277 10.5634 29.4856 10.807 29.5827 11.2127C29.6119 11.3339 29.6036 11.4641 29.6135 11.61C29.354 11.61 29.1124 11.61 28.8707 11.61C28.6327 11.61 28.3941 11.61 28.1457 11.61ZM29.1045 11.2398C29.0711 10.9988 28.8796 10.8838 28.5575 10.899C28.3268 10.9094 28.1702 11.0412 28.1587 11.2398C28.4719 11.2398 28.784 11.2398 29.1045 11.2398Z" fill="black"/>
<path d="M25.4802 10.4487C26.0512 10.4717 26.4756 10.8278 26.5184 11.3824C26.5471 11.7609 26.3811 12.0647 26.0491 12.2686C25.6686 12.5022 25.0652 12.4395 24.7432 12.1279C24.2598 11.66 24.4075 10.8351 25.0266 10.5763C25.1701 10.5162 25.3283 10.4906 25.4802 10.4487ZM25.9996 11.4462C25.9985 11.1315 25.7981 10.9234 25.4948 10.9255C25.1545 10.9281 24.9765 11.1477 24.965 11.4473C24.954 11.7353 25.2004 11.9664 25.4891 11.9643C25.7976 11.9617 26.0006 11.7557 25.9996 11.4462Z" fill="black"/>
<path d="M26.8179 10.4775C26.9928 10.4775 27.1468 10.4775 27.3221 10.4775C27.3221 10.5209 27.3221 10.5628 27.3221 10.6046C27.3221 11.3046 27.3221 12.0046 27.3216 12.7046C27.3216 13.0575 27.116 13.263 26.7631 13.264C26.6274 13.2645 26.4912 13.2645 26.3408 13.2645C26.3408 13.1814 26.3408 13.1119 26.3408 13.0423C26.3408 12.9723 26.3408 12.9017 26.3408 12.8071C26.4316 12.8071 26.5141 12.8102 26.5961 12.806C26.7824 12.7972 26.8179 12.759 26.8179 12.575C26.8179 11.9283 26.8179 11.2816 26.8179 10.6349C26.8179 10.5868 26.8179 10.5392 26.8179 10.4775Z" fill="black"/>
<path d="M18.9642 11.5803C18.9261 11.2969 19.2847 10.9561 19.589 10.9759C19.9262 10.9984 20.205 11.2614 20.2029 11.5986C20.2008 11.9342 19.9095 12.2306 19.5744 12.2217C19.2388 12.2128 18.9444 11.9467 18.9642 11.5803Z" fill="#00AA11"/>
<path d="M7.30078 10.7124H7.82119C8.10463 10.7124 8.27218 10.8724 8.27218 11.1291C8.27218 11.3899 8.10672 11.5426 7.82119 11.5426H7.45894V12.0638H7.30078V10.7124ZM7.8118 11.392C8.01798 11.392 8.11246 11.3089 8.11246 11.1291C8.11246 10.9497 8.0138 10.863 7.8118 10.863H7.45894V11.392H7.8118Z" fill="black"/>
<path d="M8.8315 11.0112C9.12068 11.0112 9.31381 11.2292 9.31381 11.5518C9.31381 11.8744 9.12068 12.0924 8.8315 12.0924C8.54442 12.0924 8.35181 11.8744 8.35181 11.5518C8.35181 11.2292 8.54442 11.0112 8.8315 11.0112ZM8.8315 11.1524C8.6295 11.1524 8.50214 11.3066 8.50214 11.5518C8.50214 11.797 8.6295 11.9512 8.8315 11.9512C9.03403 11.9512 9.16348 11.797 9.16348 11.5518C9.16348 11.3066 9.03403 11.1524 8.8315 11.1524Z" fill="black"/>
<path d="M9.41113 11.04H9.55938L9.74415 11.8357H9.74833L10.0218 11.04H10.1586L10.4326 11.8357H10.4363L10.6216 11.04H10.7698L10.525 12.0637H10.3825L10.0934 11.2277H10.0892L9.79844 12.0637H9.65542L9.41113 11.04Z" fill="black"/>
<path d="M11.3398 11.0112C11.6139 11.0112 11.7965 11.2177 11.7965 11.5189V11.5962H11.0198C11.024 11.7933 11.1493 11.9554 11.3362 11.9554C11.4808 11.9554 11.5617 11.9031 11.6483 11.7505L11.7736 11.8257C11.6869 12.0014 11.5387 12.0924 11.3398 12.0924C11.0564 12.0924 10.8674 11.8744 10.8674 11.5518C10.8674 11.2292 11.0627 11.0112 11.3398 11.0112ZM11.6447 11.4744C11.6426 11.3798 11.6118 11.3029 11.5559 11.2407C11.5001 11.179 11.4286 11.1482 11.3398 11.1482C11.1665 11.1482 11.0277 11.3029 11.024 11.4744H11.6447Z" fill="black"/>
<path d="M12.0115 11.0402H12.154V11.1254H12.1576C12.1963 11.0616 12.2714 11.0229 12.3696 11.0229C12.4004 11.0229 12.4353 11.0287 12.4719 11.0386L12.439 11.1949C12.4024 11.1834 12.368 11.1777 12.3388 11.1777C12.2177 11.1777 12.1613 11.2587 12.1613 11.4495V12.0638H12.0115V11.0402Z" fill="black"/>
<path d="M13.0134 11.0112C13.2869 11.0112 13.4701 11.2177 13.4701 11.5189V11.5962H12.6934C12.6971 11.7933 12.8224 11.9554 13.0092 11.9554C13.1538 11.9554 13.2352 11.9031 13.3219 11.7505L13.4472 11.8257C13.3605 12.0014 13.2118 12.0924 13.0134 12.0924C12.73 12.0924 12.541 11.8744 12.541 11.5518C12.541 11.2292 12.7357 11.0112 13.0134 11.0112ZM13.3177 11.4744C13.3161 11.3798 13.2854 11.3029 13.2295 11.2407C13.1731 11.179 13.1021 11.1482 13.0134 11.1482C12.8401 11.1482 12.7013 11.3029 12.6971 11.4744H13.3177Z" fill="black"/>
<path d="M14.1038 11.0114C14.2275 11.0114 14.3372 11.0636 14.4045 11.1483H14.4087V10.6543H14.559V12.0637H14.4144V11.9613H14.4102C14.3429 12.0444 14.2291 12.0925 14.1038 12.0925C13.8382 12.0925 13.645 11.8703 13.645 11.5519C13.645 11.2335 13.8382 11.0114 14.1038 11.0114ZM14.4087 11.4516C14.4087 11.2853 14.2735 11.1525 14.1038 11.1525C13.9206 11.1525 13.7953 11.3104 13.7953 11.5519C13.7953 11.7935 13.9206 11.9513 14.1138 11.9513C14.2756 11.9513 14.4087 11.8165 14.4087 11.6502V11.4516Z" fill="black"/>
<path d="M15.4788 11.9613V12.0637H15.3347V10.6543H15.4845V11.1483H15.4887C15.556 11.0636 15.6662 11.0114 15.7894 11.0114C16.0556 11.0114 16.2482 11.2335 16.2482 11.5519C16.2482 11.8703 16.0556 12.0925 15.7894 12.0925C15.6641 12.0925 15.5503 12.0444 15.483 11.9613H15.4788ZM15.7894 11.1525C15.6197 11.1525 15.4845 11.2853 15.4845 11.4516V11.6502C15.4845 11.8165 15.6176 11.9513 15.7794 11.9513C15.9726 11.9513 16.0978 11.7935 16.0978 11.5519C16.0978 11.3104 15.9726 11.1525 15.7894 11.1525Z" fill="black"/>
<path d="M16.6911 11.9764L16.2981 11.04H16.4583L16.7684 11.8028H16.7721L17.0847 11.04H17.2444L16.6316 12.4976H16.4756L16.6911 11.9764Z" fill="black"/>
<path d="M4.74617 0.72998C7.03556 0.72998 8.89172 2.52419 8.89172 4.73716C8.89172 6.95013 7.03556 8.74434 4.74617 8.74434C2.45625 8.74434 0.600098 6.95013 0.600098 4.73716C0.600098 2.52419 2.45625 0.72998 4.74617 0.72998Z" fill="#00AED6"/>
<path fill-rule="evenodd" clip-rule="evenodd" d="M7.16436 4.61365C7.13251 4.10341 6.68361 3.71236 6.15537 3.73536H3.53661C3.44108 3.73536 3.36383 3.6606 3.36383 3.56807C3.36383 3.47606 3.44108 3.4013 3.53661 3.4013H6.18982C6.17468 3.05574 5.9304 2.75879 5.58537 2.66678C4.8118 2.53295 4.01996 2.53295 3.24639 2.66678C2.80688 2.77134 2.47803 3.12475 2.41748 3.55814C2.29639 4.34441 2.29639 5.14323 2.41748 5.92899C2.50987 6.38799 2.88674 6.74297 3.36383 6.82086C4.32271 6.93745 5.29306 6.93745 6.25194 6.82086C6.67944 6.73722 7.00254 6.39793 7.0537 5.97917C7.14139 5.52905 7.17845 5.07109 7.16436 4.61365ZM6.30048 5.1746V5.32151C6.30048 5.41352 6.22323 5.48827 6.12771 5.48827C6.03218 5.48827 5.95493 5.41352 5.95493 5.32151V5.1746C5.89908 5.12755 5.86776 5.05906 5.86881 4.98744C5.86881 4.8489 5.98468 4.73703 6.12771 4.73703C6.27073 4.73703 6.38661 4.8489 6.38661 4.98744C6.38609 5.05854 6.35477 5.1265 6.30048 5.1746Z" fill="white"/>
<path d="M20.7002 4.28674C20.706 3.58411 20.1213 3.01009 19.3942 3.00434C18.6671 2.99911 18.0736 3.56372 18.0679 4.26635C18.0621 4.96898 18.6467 5.54352 19.3739 5.54875C19.3806 5.54875 19.3874 5.54875 19.3942 5.54875C20.0838 5.58482 20.6731 5.07301 20.7101 4.40646C20.7122 4.36672 20.7122 4.32647 20.7106 4.28674H20.7002ZM16.7896 4.28674C16.7896 2.95101 17.881 1.93262 19.3942 1.93262C20.9074 1.93262 21.9994 2.95728 21.9994 4.28674C21.9994 5.61567 20.9179 6.64399 19.3942 6.64399C17.8706 6.64399 16.7896 5.6188 16.7896 4.28674Z" fill="black"/>
<path d="M14.717 4.52987C14.717 5.08089 14.1366 5.53153 13.4011 5.53153C12.7251 5.59793 12.1217 5.12167 12.0534 4.46818C12.0466 4.40231 12.0455 4.33591 12.0502 4.26952C12.0502 3.54128 12.603 3.04044 13.4528 3.04044C14.1439 3.04044 14.717 3.49788 14.717 4.01544V4.52987ZM14.7687 1.92847V2.45597C14.3485 2.08688 13.7915 1.89815 13.2247 1.93213C11.8842 1.94363 10.8079 3.00385 10.8199 4.29932C10.8325 5.59479 11.9291 6.63566 13.2696 6.62364C13.8213 6.64769 14.3584 6.44798 14.7515 6.07262V6.52326C14.7515 7.13441 14.206 7.58191 13.4872 7.58191C12.9386 7.62008 12.3979 7.43658 11.9949 7.07428L11.155 7.85585C11.7845 8.45288 12.6401 8.77387 13.5217 8.74407C14.9937 8.74407 16.0021 7.78894 16.0021 6.51699V1.92847H14.7687Z" fill="black"/>
<path d="M22.76 2.06554H23.9966V2.45972H24.0138C24.4194 2.10213 24.9549 1.91498 25.503 1.9385C26.8492 1.98764 27.8994 3.08236 27.8488 4.38306C27.8008 5.6158 26.7782 6.60387 25.503 6.6504C24.9795 6.6619 24.4684 6.49566 24.0587 6.17937V8.41011H22.7704L22.76 2.06554ZM25.3026 3.04054C24.6115 3.04054 24.0488 3.50478 24.0488 4.00927V4.57336C24.0488 5.11079 24.6047 5.55516 25.3094 5.55516C26.0281 5.59071 26.6404 5.05694 26.6775 4.36267C26.7145 3.66841 26.1623 3.07661 25.4435 3.04054C25.3991 3.03845 25.3542 3.03845 25.3094 3.04054H25.3026Z" fill="black"/>
<path d="M30.3224 3.85575C31.1691 3.74544 31.4212 3.62834 31.4212 3.40145C31.4212 3.10764 31.1002 2.93041 30.6022 2.93041C30.0661 2.88807 29.5781 3.22997 29.4518 3.73551L28.2361 3.49137C28.4089 2.58328 29.3761 1.93555 30.5678 1.93555C31.9155 1.93555 32.7512 2.60315 32.7512 3.68532V6.52041H31.594V6.02637H31.5767C31.1842 6.45349 30.6085 6.68038 30.0186 6.64065C28.9992 6.64065 28.2909 6.1027 28.2909 5.30492C28.2909 4.50662 28.8713 4.04918 30.3224 3.85575ZM31.5251 4.32626H31.5078C31.3935 4.48676 31.1623 4.58034 30.5229 4.68699C29.7665 4.82396 29.4867 4.96772 29.4867 5.22807C29.4867 5.48842 29.7112 5.61546 30.1982 5.61546C30.941 5.61546 31.5146 5.2814 31.5146 4.85742L31.5251 4.32626Z" fill="black"/>
<path d="M35.0829 6.2697L32.9512 2.06543H34.3715L35.7704 4.97736H35.7913L37.1729 2.06543H38.6L35.4076 8.41H33.9878L35.0829 6.2697Z" fill="black"/>
</g>
<defs>
<clipPath id="clip0_99_1584">
<rect width="38" height="12.5469" fill="white" transform="translate(0.600098 0.726562)"/>
</clipPath>
</defs>
</svg>
