<svg width="39" height="14" viewBox="0 0 39 14" fill="none" xmlns="http://www.w3.org/2000/svg">
<path fill-rule="evenodd" clip-rule="evenodd" d="M13.6812 1.14653H18.5679L18.5711 3.09497L17.3679 3.09177L20.2215 9.82332L23.0268 3.09817H21.7914L21.7882 1.15293L25.7034 1.14974L25.6969 2.25993L20.9871 13.1955C19.8515 13.1987 19.1116 12.7892 18.7159 11.9317L14.8393 3.09817H13.678L13.6812 1.14653ZM6.9543 0.804199C10.3547 0.804199 13.1118 3.56528 13.1118 6.96945C13.1118 10.3736 10.3547 13.1315 6.9543 13.1315C3.55708 13.1315 0.800049 10.3736 0.800049 6.96945C0.800049 3.56528 3.55708 0.804199 6.9543 0.804199ZM6.93821 2.81982C9.08078 2.81982 10.818 4.69787 10.818 7.01424C10.818 9.33061 9.08078 11.2055 6.93821 11.2055C4.79243 11.2055 3.05521 9.33061 3.05521 7.01424C3.05521 4.69787 4.79243 2.81982 6.93821 2.81982ZM32.6426 0.804199C36.043 0.804199 38.8 3.56528 38.8 6.96945C38.8 10.3736 36.043 13.1315 32.6426 13.1315C29.2454 13.1315 26.4883 10.3736 26.4883 6.96945C26.4883 3.56528 29.2454 0.804199 32.6426 0.804199ZM32.6265 2.81982C34.7691 2.81982 36.5063 4.69787 36.5063 7.01424C36.5063 9.33061 34.7691 11.2055 32.6265 11.2055C30.4807 11.2055 28.7435 9.33061 28.7435 7.01424C28.7435 4.69787 30.4807 2.81982 32.6265 2.81982Z" fill="#4C3494"/>
</svg>
