<svg width="26" height="28" viewBox="0 0 26 28" fill="none" xmlns="http://www.w3.org/2000/svg">
<g clip-path="url(#clip0_99_1610)">
<path d="M22.0557 2.179C20.6406 0.706493 18.0824 0.0751953 14.8098 0.0751953H5.31165C4.98785 0.0752063 4.67468 0.180663 4.42843 0.372605C4.18219 0.564547 4.01903 0.830383 3.96828 1.12232L0.0134367 24.0199C-0.0651726 24.4714 0.31782 24.8803 0.819132 24.8803H6.68294L8.1556 16.3532L8.1099 16.6202C8.21481 16.0175 8.7795 15.5729 9.44818 15.5729H12.2347C17.7087 15.5729 21.9949 13.5432 23.247 7.67163C23.2841 7.49798 23.3163 7.32896 23.3442 7.16383C23.1861 7.08743 23.1861 7.08743 23.3442 7.16383C23.717 4.99365 23.3416 3.51641 22.0557 2.179Z" fill="#27346A"/>
<path d="M10.3993 6.38206C10.5596 6.31237 10.735 6.27626 10.9125 6.27636H18.3589C19.2406 6.27636 20.0631 6.32874 20.8147 6.43917C21.025 6.46978 21.2342 6.50633 21.442 6.54876C21.7366 6.6081 22.0277 6.68072 22.3144 6.76636C22.6839 6.87901 23.028 7.0102 23.3443 7.16383C23.717 4.99281 23.3416 3.51641 22.0557 2.179C20.6398 0.706493 18.0824 0.0751953 14.8098 0.0751953H5.31084C4.64205 0.0751953 4.07309 0.519672 3.96828 1.12232L0.0134373 24.0191C-0.0651721 24.4714 0.31782 24.8797 0.81832 24.8797H6.68295L9.73825 7.19239C9.76829 7.01854 9.84415 6.85395 9.95931 6.71279C10.0745 6.57164 10.2255 6.45814 10.3993 6.38206Z" fill="#27346A"/>
<path d="M23.247 7.67186C21.995 13.5426 17.7088 15.5731 12.2347 15.5731H9.44741C8.77873 15.5731 8.21394 16.0177 8.11004 16.6205L6.27795 27.2229C6.2095 27.6181 6.54425 27.9761 6.98219 27.9761H11.9252C12.2084 27.9761 12.4822 27.8838 12.6975 27.7159C12.9128 27.5479 13.0553 27.3154 13.0996 27.0601L13.1477 26.8302L14.0794 21.4401L14.1394 21.1422C14.1836 20.8869 14.3262 20.6544 14.5415 20.4865C14.7567 20.3186 15.0305 20.2262 15.3137 20.2262H16.0534C20.8418 20.2262 24.5912 18.4503 25.6869 13.3142C26.1442 11.1679 25.9075 9.37588 24.6977 8.11718C24.3308 7.73593 23.8751 7.42107 23.3442 7.16406C23.3155 7.33002 23.2843 7.49821 23.247 7.67186Z" fill="#2790C3"/>
<path d="M22.0349 6.68701C21.8397 6.63496 21.6426 6.58889 21.444 6.54886C21.2361 6.50712 21.0269 6.47083 20.8167 6.44001C20.0643 6.32885 19.2425 6.27637 18.3599 6.27637H10.9144C10.7367 6.276 10.5613 6.31243 10.4012 6.3829C10.2272 6.45875 10.076 6.57218 9.96081 6.71338C9.8456 6.85457 9.76984 7.01928 9.74007 7.19323L8.15752 16.3533L8.11182 16.6203C8.21592 16.0176 8.78061 15.573 9.44939 15.573H12.2367C17.7107 15.573 21.9968 13.5433 23.2489 7.67173C23.2862 7.49808 23.3174 7.3298 23.3462 7.16393C23.0291 7.01114 22.6859 6.87911 22.3163 6.7672C22.2231 6.73898 22.1293 6.71224 22.035 6.68701" fill="#1F264F"/>
</g>
<defs>
<clipPath id="clip0_99_1610">
<rect width="26" height="28" fill="white"/>
</clipPath>
</defs>
</svg>
