<svg width="17" height="18" viewBox="0 0 17 18" fill="none" xmlns="http://www.w3.org/2000/svg">
<path fill-rule="evenodd" clip-rule="evenodd" d="M8.1376 2.7002C8.34645 2.7002 8.54676 2.78317 8.69444 2.93085C8.84213 3.07853 8.9251 3.27884 8.9251 3.4877V7.9502H13.3876C13.5964 7.9502 13.7968 8.03317 13.9444 8.18085C14.0921 8.32853 14.1751 8.52884 14.1751 8.7377C14.1751 8.94655 14.0921 9.14686 13.9444 9.29454C13.7968 9.44222 13.5964 9.5252 13.3876 9.5252H8.9251V13.9877C8.9251 14.1965 8.84213 14.3969 8.69444 14.5445C8.54676 14.6922 8.34645 14.7752 8.1376 14.7752C7.92874 14.7752 7.72843 14.6922 7.58075 14.5445C7.43307 14.3969 7.3501 14.1965 7.3501 13.9877V9.5252H2.8876C2.67874 9.5252 2.47843 9.44222 2.33075 9.29454C2.18307 9.14686 2.1001 8.94655 2.1001 8.7377C2.1001 8.52884 2.18307 8.32853 2.33075 8.18085C2.47843 8.03317 2.67874 7.9502 2.8876 7.9502H7.3501V3.4877C7.3501 3.27884 7.43307 3.07853 7.58075 2.93085C7.72843 2.78317 7.92874 2.7002 8.1376 2.7002Z" fill="#0B132A"/>
</svg>
